<svg xmlns="http://www.w3.org/2000/svg" width="960" height="1280" viewBox="0 0 960 1280">
<defs>
<marker id="arrow" viewBox="0 0 10 10" refX="9" refY="5" markerWidth="8" markerHeight="8" orient="auto-start-reverse"><path d="M 0 0 L 10 5 L 0 10 z" fill="#E23B4A"/></marker>
<filter id="shadow" x="-20%" y="-20%" width="140%" height="140%"><feDropShadow dx="0" dy="12" stdDeviation="12" flood-color="#1d2b45" flood-opacity="0.18"/></filter>
</defs>
<rect width="960" height="1280" fill="#F5F7FB"/>
<text x="72" y="48" font-family="Arial, sans-serif" font-size="28" font-weight="700" fill="#26334A">6.2 关卡页模块：解题主循环</text>
<rect x="72" y="84" width="420" height="1040" rx="34" fill="#FFFFFF" stroke="#26334A" stroke-width="4" filter="url(#shadow)"/>
<rect x="92" y="108" width="380" height="992" rx="22" fill="#DFF4FF" stroke="#D8DEE9" stroke-width="1" />
<text x="282.0" y="154" font-family="Arial, PingFang SC, sans-serif" font-size="24" font-weight="700" fill="#26334A" text-anchor="middle">关卡 1</text>
<rect x="110" y="176" width="70" height="42" rx="12" fill="#FFFFFF" stroke="#D8DEE9" stroke-width="2" />
<text x="145.0" y="204" font-family="Arial, PingFang SC, sans-serif" font-size="17" font-weight="700" fill="#26334A" text-anchor="middle">返回</text>
<rect x="194" y="176" width="118" height="42" rx="12" fill="#FFFFFF" stroke="#D8DEE9" stroke-width="2" />
<text x="253.0" y="204" font-family="Arial, PingFang SC, sans-serif" font-size="17" font-weight="700" fill="#26334A" text-anchor="middle">第 1 关</text>
<rect x="326" y="176" width="70" height="42" rx="12" fill="#FFFFFF" stroke="#D8DEE9" stroke-width="2" />
<text x="361.0" y="204" font-family="Arial, PingFang SC, sans-serif" font-size="17" font-weight="700" fill="#26334A" text-anchor="middle">设置</text>
<text x="272" y="260" font-family="Arial, PingFang SC, sans-serif" font-size="22" font-weight="700" fill="#26334A" text-anchor="middle">进度 0 / 6</text>
<rect x="130" y="280" width="280" height="20" rx="10" fill="#FFFFFF" stroke="#9FC5D8" stroke-width="2" />
<rect x="130" y="280" width="28" height="20" rx="10" fill="#48B985" stroke="#48B985" stroke-width="0" />
<rect x="112" y="330" width="320" height="92" rx="16" fill="#FFFFFF" stroke="#D8DEE9" stroke-width="2" />
<text x="132" y="368" font-family="Arial, PingFang SC, sans-serif" font-size="20" font-weight="700" fill="#26334A" text-anchor="start">教练提示区</text>
<text x="132" y="398" font-family="Arial, PingFang SC, sans-serif" font-size="17" font-weight="400" fill="#536278" text-anchor="start">说明当前规则或下一步观察范围</text>
<rect x="101" y="462" width="342" height="342" rx="12" fill="#26334A" stroke="#26334A" stroke-width="0" />
<rect x="107.0" y="468.0" width="55.0" height="55.0" rx="4" fill="#B8E6B1" stroke="#FFFFFF" stroke-width="2" />
<rect x="162.0" y="468.0" width="55.0" height="55.0" rx="4" fill="#B8E6B1" stroke="#FFFFFF" stroke-width="2" />
<rect x="217.0" y="468.0" width="55.0" height="55.0" rx="4" fill="#FFE6A7" stroke="#FFFFFF" stroke-width="2" />
<rect x="272.0" y="468.0" width="55.0" height="55.0" rx="4" fill="#FFE6A7" stroke="#FFFFFF" stroke-width="2" />
<rect x="327.0" y="468.0" width="55.0" height="55.0" rx="4" fill="#A8D8FF" stroke="#FFFFFF" stroke-width="2" />
<rect x="382.0" y="468.0" width="55.0" height="55.0" rx="4" fill="#A8D8FF" stroke="#FFFFFF" stroke-width="2" />
<rect x="107.0" y="523.0" width="55.0" height="55.0" rx="4" fill="#B8E6B1" stroke="#FFFFFF" stroke-width="2" />
<rect x="162.0" y="523.0" width="55.0" height="55.0" rx="4" fill="#B8E6B1" stroke="#FFFFFF" stroke-width="2" />
<rect x="217.0" y="523.0" width="55.0" height="55.0" rx="4" fill="#B8E6B1" stroke="#FFFFFF" stroke-width="2" />
<rect x="272.0" y="523.0" width="55.0" height="55.0" rx="4" fill="#FFE6A7" stroke="#FFFFFF" stroke-width="2" />
<rect x="327.0" y="523.0" width="55.0" height="55.0" rx="4" fill="#FFE6A7" stroke="#FFFFFF" stroke-width="2" />
<rect x="382.0" y="523.0" width="55.0" height="55.0" rx="4" fill="#A8D8FF" stroke="#FFFFFF" stroke-width="2" />
<rect x="107.0" y="578.0" width="55.0" height="55.0" rx="4" fill="#FFC6C6" stroke="#FFFFFF" stroke-width="2" />
<rect x="162.0" y="578.0" width="55.0" height="55.0" rx="4" fill="#B8E6B1" stroke="#FFFFFF" stroke-width="2" />
<rect x="217.0" y="578.0" width="55.0" height="55.0" rx="4" fill="#B8E6B1" stroke="#FFFFFF" stroke-width="2" />
<rect x="272.0" y="578.0" width="55.0" height="55.0" rx="4" fill="#FFE6A7" stroke="#FFFFFF" stroke-width="2" />
<rect x="327.0" y="578.0" width="55.0" height="55.0" rx="4" fill="#FFE6A7" stroke="#FFFFFF" stroke-width="2" />
<rect x="382.0" y="578.0" width="55.0" height="55.0" rx="4" fill="#A8D8FF" stroke="#FFFFFF" stroke-width="2" />
<rect x="107.0" y="633.0" width="55.0" height="55.0" rx="4" fill="#FFC6C6" stroke="#FFFFFF" stroke-width="2" />
<rect x="162.0" y="633.0" width="55.0" height="55.0" rx="4" fill="#B8E6B1" stroke="#FFFFFF" stroke-width="2" />
<rect x="217.0" y="633.0" width="55.0" height="55.0" rx="4" fill="#FFE6A7" stroke="#FFFFFF" stroke-width="2" />
<rect x="272.0" y="633.0" width="55.0" height="55.0" rx="4" fill="#FFE6A7" stroke="#FFFFFF" stroke-width="2" />
<rect x="327.0" y="633.0" width="55.0" height="55.0" rx="4" fill="#E7C6FF" stroke="#FFFFFF" stroke-width="2" />
<rect x="382.0" y="633.0" width="55.0" height="55.0" rx="4" fill="#E7C6FF" stroke="#FFFFFF" stroke-width="2" />
<rect x="107.0" y="688.0" width="55.0" height="55.0" rx="4" fill="#FFC6C6" stroke="#FFFFFF" stroke-width="2" />
<rect x="162.0" y="688.0" width="55.0" height="55.0" rx="4" fill="#FFC6C6" stroke="#FFFFFF" stroke-width="2" />
<rect x="217.0" y="688.0" width="55.0" height="55.0" rx="4" fill="#FFC6C6" stroke="#FFFFFF" stroke-width="2" />
<rect x="272.0" y="688.0" width="55.0" height="55.0" rx="4" fill="#B9F2E6" stroke="#FFFFFF" stroke-width="2" />
<rect x="327.0" y="688.0" width="55.0" height="55.0" rx="4" fill="#E7C6FF" stroke="#FFFFFF" stroke-width="2" />
<rect x="382.0" y="688.0" width="55.0" height="55.0" rx="4" fill="#E7C6FF" stroke="#FFFFFF" stroke-width="2" />
<rect x="107.0" y="743.0" width="55.0" height="55.0" rx="4" fill="#FFC6C6" stroke="#FFFFFF" stroke-width="2" />
<rect x="162.0" y="743.0" width="55.0" height="55.0" rx="4" fill="#FFC6C6" stroke="#FFFFFF" stroke-width="2" />
<rect x="217.0" y="743.0" width="55.0" height="55.0" rx="4" fill="#FFC6C6" stroke="#FFFFFF" stroke-width="2" />
<rect x="272.0" y="743.0" width="55.0" height="55.0" rx="4" fill="#B9F2E6" stroke="#FFFFFF" stroke-width="2" />
<rect x="327.0" y="743.0" width="55.0" height="55.0" rx="4" fill="#B9F2E6" stroke="#FFFFFF" stroke-width="2" />
<rect x="382.0" y="743.0" width="55.0" height="55.0" rx="4" fill="#B9F2E6" stroke="#FFFFFF" stroke-width="2" />
<rect x="111" y="842" width="92" height="58" rx="16" fill="#FFFFFF" stroke="#D8DEE9" stroke-width="2" />
<text x="157.0" y="879.0" font-family="Arial, PingFang SC, sans-serif" font-size="22" font-weight="700" fill="#fff" text-anchor="middle">撤销</text>
<text x="157" y="878" font-family="Arial, PingFang SC, sans-serif" font-size="19" font-weight="700" fill="#26334A" text-anchor="middle">撤销</text>
<rect x="224" y="842" width="92" height="58" rx="16" fill="#FFFFFF" stroke="#D8DEE9" stroke-width="2" />
<text x="270.0" y="879.0" font-family="Arial, PingFang SC, sans-serif" font-size="22" font-weight="700" fill="#fff" text-anchor="middle">清除</text>
<text x="270" y="878" font-family="Arial, PingFang SC, sans-serif" font-size="19" font-weight="700" fill="#26334A" text-anchor="middle">清除</text>
<rect x="337" y="842" width="92" height="58" rx="16" fill="#48B985" stroke="#2A9C6F" stroke-width="2" />
<text x="383.0" y="879.0" font-family="Arial, PingFang SC, sans-serif" font-size="22" font-weight="700" fill="#fff" text-anchor="middle">提示</text>
<rect x="112" y="930" width="320" height="56" rx="14" fill="#EEF2F8" stroke="#D8DEE9" stroke-width="2" />
<text x="272" y="965" font-family="Arial, PingFang SC, sans-serif" font-size="18" font-weight="700" fill="#536278" text-anchor="middle">广告占位</text>
<circle cx="548" cy="180" r="20" fill="#E23B4A"/>
<text x="548" y="187" font-family="Arial, PingFang SC, sans-serif" font-size="21" font-weight="700" fill="#fff" text-anchor="middle">1</text>
<text x="580" y="177" font-family="Arial, PingFang SC, sans-serif" font-size="22" font-weight="700" fill="#26334A" text-anchor="start">返回与调试切关</text>
<text x="580" y="207" font-family="Arial, PingFang SC, sans-serif" font-size="18" font-weight="400" fill="#536278" text-anchor="start">返回首页；关卡下拉用于调试和快速切换。</text>
<line x1="396" y1="194" x2="532" y2="180" stroke="#E23B4A" stroke-width="4" stroke-linecap="round" marker-end="url(#arrow)"/>
<circle cx="548" cy="330" r="20" fill="#E23B4A"/>
<text x="548" y="337" font-family="Arial, PingFang SC, sans-serif" font-size="21" font-weight="700" fill="#fff" text-anchor="middle">2</text>
<text x="580" y="327" font-family="Arial, PingFang SC, sans-serif" font-size="22" font-weight="700" fill="#26334A" text-anchor="start">进度反馈</text>
<text x="580" y="357" font-family="Arial, PingFang SC, sans-serif" font-size="18" font-weight="400" fill="#536278" text-anchor="start">已找到皇冠数实时驱动进度条，达到目标后检查通关。</text>
<line x1="408" y1="290" x2="532" y2="330" stroke="#E23B4A" stroke-width="4" stroke-linecap="round" marker-end="url(#arrow)"/>
<circle cx="548" cy="505" r="20" fill="#E23B4A"/>
<text x="548" y="512" font-family="Arial, PingFang SC, sans-serif" font-size="21" font-weight="700" fill="#fff" text-anchor="middle">3</text>
<text x="580" y="502" font-family="Arial, PingFang SC, sans-serif" font-size="22" font-weight="700" fill="#26334A" text-anchor="start">解题区域</text>
<text x="580" y="532" font-family="Arial, PingFang SC, sans-serif" font-size="18" font-weight="400" fill="#536278" text-anchor="start">棋盘是核心操作区，点击格子循环空白、X、皇冠。</text>
<line x1="436" y1="620" x2="532" y2="505" stroke="#E23B4A" stroke-width="4" stroke-linecap="round" marker-end="url(#arrow)"/>
<circle cx="548" cy="735" r="20" fill="#E23B4A"/>
<text x="548" y="742" font-family="Arial, PingFang SC, sans-serif" font-size="21" font-weight="700" fill="#fff" text-anchor="middle">4</text>
<text x="580" y="732" font-family="Arial, PingFang SC, sans-serif" font-size="22" font-weight="700" fill="#26334A" text-anchor="start">底部操作</text>
<text x="580" y="762" font-family="Arial, PingFang SC, sans-serif" font-size="18" font-weight="400" fill="#536278" text-anchor="start">撤销、清除、提示服务当前关卡；广告位保留在底部。</text>
<line x1="430" y1="870" x2="532" y2="735" stroke="#E23B4A" stroke-width="4" stroke-linecap="round" marker-end="url(#arrow)"/>
</svg>
