<svg xmlns="http://www.w3.org/2000/svg" width="960" height="1280" viewBox="0 0 960 1280">
<defs>
<marker id="arrow" viewBox="0 0 10 10" refX="9" refY="5" markerWidth="8" markerHeight="8" orient="auto-start-reverse"><path d="M 0 0 L 10 5 L 0 10 z" fill="#E23B4A"/></marker>
<filter id="shadow" x="-20%" y="-20%" width="140%" height="140%"><feDropShadow dx="0" dy="12" stdDeviation="12" flood-color="#1d2b45" flood-opacity="0.18"/></filter>
</defs>
<rect width="960" height="1280" fill="#F5F7FB"/>
<text x="72" y="48" font-family="Arial, sans-serif" font-size="28" font-weight="700" fill="#26334A">6.5 提示模块：教学而不是代打</text>
<rect x="72" y="84" width="420" height="1040" rx="34" fill="#FFFFFF" stroke="#26334A" stroke-width="4" filter="url(#shadow)"/>
<rect x="92" y="108" width="380" height="992" rx="22" fill="#DFF4FF" stroke="#D8DEE9" stroke-width="1" />
<text x="282.0" y="154" font-family="Arial, PingFang SC, sans-serif" font-size="24" font-weight="700" fill="#26334A" text-anchor="middle">提示中</text>
<rect x="112" y="190" width="320" height="110" rx="16" fill="#FFFFFF" stroke="#D8DEE9" stroke-width="2" />
<text x="132" y="230" font-family="Arial, PingFang SC, sans-serif" font-size="22" font-weight="700" fill="#26334A" text-anchor="start">观察第 1 行</text>
<text x="132" y="262" font-family="Arial, PingFang SC, sans-serif" font-size="17" font-weight="400" fill="#536278" text-anchor="start">候选范围、排除原因和下一步建议</text>
<rect x="101" y="334" width="342" height="342" rx="12" fill="#26334A" stroke="#26334A" stroke-width="0" />
<rect x="107.0" y="340.0" width="55.0" height="55.0" rx="4" fill="#B8E6B1" stroke="#FFFFFF" stroke-width="2" />
<rect x="112.0" y="345.0" width="45.0" height="45.0" rx="8" fill="none" stroke="#F9B84A" stroke-width="5" />
<rect x="162.0" y="340.0" width="55.0" height="55.0" rx="4" fill="#B8E6B1" stroke="#FFFFFF" stroke-width="2" />
<rect x="167.0" y="345.0" width="45.0" height="45.0" rx="8" fill="none" stroke="#F9B84A" stroke-width="5" />
<rect x="217.0" y="340.0" width="55.0" height="55.0" rx="4" fill="#FFE6A7" stroke="#FFFFFF" stroke-width="2" />
<rect x="222.0" y="345.0" width="45.0" height="45.0" rx="8" fill="none" stroke="#48B985" stroke-width="5" />
<rect x="272.0" y="340.0" width="55.0" height="55.0" rx="4" fill="#FFE6A7" stroke="#FFFFFF" stroke-width="2" />
<rect x="277.0" y="345.0" width="45.0" height="45.0" rx="8" fill="none" stroke="#E23B4A" stroke-width="5" />
<rect x="327.0" y="340.0" width="55.0" height="55.0" rx="4" fill="#A8D8FF" stroke="#FFFFFF" stroke-width="2" />
<rect x="382.0" y="340.0" width="55.0" height="55.0" rx="4" fill="#A8D8FF" stroke="#FFFFFF" stroke-width="2" />
<rect x="107.0" y="395.0" width="55.0" height="55.0" rx="4" fill="#B8E6B1" stroke="#FFFFFF" stroke-width="2" />
<rect x="162.0" y="395.0" width="55.0" height="55.0" rx="4" fill="#B8E6B1" stroke="#FFFFFF" stroke-width="2" />
<rect x="217.0" y="395.0" width="55.0" height="55.0" rx="4" fill="#B8E6B1" stroke="#FFFFFF" stroke-width="2" />
<rect x="272.0" y="395.0" width="55.0" height="55.0" rx="4" fill="#FFE6A7" stroke="#FFFFFF" stroke-width="2" />
<rect x="327.0" y="395.0" width="55.0" height="55.0" rx="4" fill="#FFE6A7" stroke="#FFFFFF" stroke-width="2" />
<rect x="382.0" y="395.0" width="55.0" height="55.0" rx="4" fill="#A8D8FF" stroke="#FFFFFF" stroke-width="2" />
<rect x="107.0" y="450.0" width="55.0" height="55.0" rx="4" fill="#FFC6C6" stroke="#FFFFFF" stroke-width="2" />
<rect x="162.0" y="450.0" width="55.0" height="55.0" rx="4" fill="#B8E6B1" stroke="#FFFFFF" stroke-width="2" />
<rect x="217.0" y="450.0" width="55.0" height="55.0" rx="4" fill="#B8E6B1" stroke="#FFFFFF" stroke-width="2" />
<rect x="272.0" y="450.0" width="55.0" height="55.0" rx="4" fill="#FFE6A7" stroke="#FFFFFF" stroke-width="2" />
<rect x="327.0" y="450.0" width="55.0" height="55.0" rx="4" fill="#FFE6A7" stroke="#FFFFFF" stroke-width="2" />
<rect x="382.0" y="450.0" width="55.0" height="55.0" rx="4" fill="#A8D8FF" stroke="#FFFFFF" stroke-width="2" />
<rect x="107.0" y="505.0" width="55.0" height="55.0" rx="4" fill="#FFC6C6" stroke="#FFFFFF" stroke-width="2" />
<rect x="162.0" y="505.0" width="55.0" height="55.0" rx="4" fill="#B8E6B1" stroke="#FFFFFF" stroke-width="2" />
<rect x="217.0" y="505.0" width="55.0" height="55.0" rx="4" fill="#FFE6A7" stroke="#FFFFFF" stroke-width="2" />
<rect x="272.0" y="505.0" width="55.0" height="55.0" rx="4" fill="#FFE6A7" stroke="#FFFFFF" stroke-width="2" />
<rect x="327.0" y="505.0" width="55.0" height="55.0" rx="4" fill="#E7C6FF" stroke="#FFFFFF" stroke-width="2" />
<rect x="382.0" y="505.0" width="55.0" height="55.0" rx="4" fill="#E7C6FF" stroke="#FFFFFF" stroke-width="2" />
<rect x="107.0" y="560.0" width="55.0" height="55.0" rx="4" fill="#FFC6C6" stroke="#FFFFFF" stroke-width="2" />
<rect x="162.0" y="560.0" width="55.0" height="55.0" rx="4" fill="#FFC6C6" stroke="#FFFFFF" stroke-width="2" />
<rect x="217.0" y="560.0" width="55.0" height="55.0" rx="4" fill="#FFC6C6" stroke="#FFFFFF" stroke-width="2" />
<rect x="272.0" y="560.0" width="55.0" height="55.0" rx="4" fill="#B9F2E6" stroke="#FFFFFF" stroke-width="2" />
<rect x="327.0" y="560.0" width="55.0" height="55.0" rx="4" fill="#E7C6FF" stroke="#FFFFFF" stroke-width="2" />
<rect x="382.0" y="560.0" width="55.0" height="55.0" rx="4" fill="#E7C6FF" stroke="#FFFFFF" stroke-width="2" />
<rect x="107.0" y="615.0" width="55.0" height="55.0" rx="4" fill="#FFC6C6" stroke="#FFFFFF" stroke-width="2" />
<rect x="162.0" y="615.0" width="55.0" height="55.0" rx="4" fill="#FFC6C6" stroke="#FFFFFF" stroke-width="2" />
<rect x="217.0" y="615.0" width="55.0" height="55.0" rx="4" fill="#FFC6C6" stroke="#FFFFFF" stroke-width="2" />
<rect x="272.0" y="615.0" width="55.0" height="55.0" rx="4" fill="#B9F2E6" stroke="#FFFFFF" stroke-width="2" />
<rect x="327.0" y="615.0" width="55.0" height="55.0" rx="4" fill="#B9F2E6" stroke="#FFFFFF" stroke-width="2" />
<rect x="382.0" y="615.0" width="55.0" height="55.0" rx="4" fill="#B9F2E6" stroke="#FFFFFF" stroke-width="2" />
<rect x="114" y="718" width="120" height="42" rx="12" fill="#FFFFFF" stroke="#D8DEE9" stroke-width="2" />
<text x="174.0" y="746" font-family="Arial, PingFang SC, sans-serif" font-size="17" font-weight="700" fill="#26334A" text-anchor="middle">免费提示 2</text>
<rect x="246" y="718" width="160" height="42" rx="12" fill="#FFFFFF" stroke="#D8DEE9" stroke-width="2" />
<text x="326.0" y="746" font-family="Arial, PingFang SC, sans-serif" font-size="17" font-weight="700" fill="#26334A" text-anchor="middle">金币提示 5</text>
<rect x="142" y="800" width="260" height="62" rx="16" fill="#48B985" stroke="#2A9C6F" stroke-width="2" />
<text x="272.0" y="839.0" font-family="Arial, PingFang SC, sans-serif" font-size="22" font-weight="700" fill="#fff" text-anchor="middle">提示</text>
<circle cx="548" cy="195" r="20" fill="#E23B4A"/>
<text x="548" y="202" font-family="Arial, PingFang SC, sans-serif" font-size="21" font-weight="700" fill="#fff" text-anchor="middle">1</text>
<text x="580" y="192" font-family="Arial, PingFang SC, sans-serif" font-size="22" font-weight="700" fill="#26334A" text-anchor="start">解释优先</text>
<text x="580" y="222" font-family="Arial, PingFang SC, sans-serif" font-size="18" font-weight="400" fill="#536278" text-anchor="start">文案要说明为什么能排除或关注某个范围。</text>
<line x1="432" y1="242" x2="532" y2="195" stroke="#E23B4A" stroke-width="4" stroke-linecap="round" marker-end="url(#arrow)"/>
<circle cx="548" cy="430" r="20" fill="#E23B4A"/>
<text x="548" y="437" font-family="Arial, PingFang SC, sans-serif" font-size="21" font-weight="700" fill="#fff" text-anchor="middle">2</text>
<text x="580" y="427" font-family="Arial, PingFang SC, sans-serif" font-size="22" font-weight="700" fill="#26334A" text-anchor="start">高亮分层</text>
<text x="580" y="457" font-family="Arial, PingFang SC, sans-serif" font-size="18" font-weight="400" fill="#536278" text-anchor="start">观察范围、候选、排除、建议格用不同颜色标出来。</text>
<line x1="398" y1="410" x2="532" y2="430" stroke="#E23B4A" stroke-width="4" stroke-linecap="round" marker-end="url(#arrow)"/>
<circle cx="548" cy="705" r="20" fill="#E23B4A"/>
<text x="548" y="712" font-family="Arial, PingFang SC, sans-serif" font-size="21" font-weight="700" fill="#fff" text-anchor="middle">3</text>
<text x="580" y="702" font-family="Arial, PingFang SC, sans-serif" font-size="22" font-weight="700" fill="#26334A" text-anchor="start">消耗规则</text>
<text x="580" y="732" font-family="Arial, PingFang SC, sans-serif" font-size="18" font-weight="400" fill="#536278" text-anchor="start">先用免费次数；用完后每次消耗 5 金币。</text>
<line x1="400" y1="828" x2="532" y2="705" stroke="#E23B4A" stroke-width="4" stroke-linecap="round" marker-end="url(#arrow)"/>
<circle cx="548" cy="920" r="20" fill="#E23B4A"/>
<text x="548" y="927" font-family="Arial, PingFang SC, sans-serif" font-size="21" font-weight="700" fill="#fff" text-anchor="middle">4</text>
<text x="580" y="917" font-family="Arial, PingFang SC, sans-serif" font-size="22" font-weight="700" fill="#26334A" text-anchor="start">不自动落子</text>
<text x="580" y="947" font-family="Arial, PingFang SC, sans-serif" font-size="18" font-weight="400" fill="#536278" text-anchor="start">提示不会替玩家放皇冠，玩家仍需自己完成操作。</text>
<line x1="268" y1="610" x2="532" y2="920" stroke="#E23B4A" stroke-width="4" stroke-linecap="round" marker-end="url(#arrow)"/>
</svg>