<svg xmlns="http://www.w3.org/2000/svg" width="960" height="1280" viewBox="0 0 960 1280">
<defs>
<marker id="arrow" viewBox="0 0 10 10" refX="9" refY="5" markerWidth="8" markerHeight="8" orient="auto-start-reverse"><path d="M 0 0 L 10 5 L 0 10 z" fill="#E23B4A"/></marker>
<filter id="shadow" x="-20%" y="-20%" width="140%" height="140%"><feDropShadow dx="0" dy="12" stdDeviation="12" flood-color="#1d2b45" flood-opacity="0.18"/></filter>
</defs>
<rect width="960" height="1280" fill="#F5F7FB"/>
<text x="72" y="48" font-family="Arial, sans-serif" font-size="28" font-weight="700" fill="#26334A">6.6 关卡数据模块：JSON 到玩法</text>
<rect x="72" y="84" width="420" height="1040" rx="34" fill="#FFFFFF" stroke="#26334A" stroke-width="4" filter="url(#shadow)"/>
<rect x="92" y="108" width="380" height="992" rx="22" fill="#DFF4FF" stroke="#D8DEE9" stroke-width="1" />
<text x="282.0" y="154" font-family="Arial, PingFang SC, sans-serif" font-size="24" font-weight="700" fill="#26334A" text-anchor="middle">关卡数据</text>
<rect x="112" y="190" width="320" height="150" rx="16" fill="#FFFFFF" stroke="#D8DEE9" stroke-width="2" />
<text x="132" y="230" font-family="Arial, PingFang SC, sans-serif" font-size="18" font-weight="700" fill="#26334A" text-anchor="start">data/levels.json</text>
<text x="132" y="260" font-family="Arial, PingFang SC, sans-serif" font-size="18" font-weight="400" fill="#26334A" text-anchor="start">50 个 6x6 默认关卡</text>
<text x="132" y="290" font-family="Arial, PingFang SC, sans-serif" font-size="18" font-weight="400" fill="#26334A" text-anchor="start">regions / solution / difficulty</text>
<text x="132" y="320" font-family="Arial, PingFang SC, sans-serif" font-size="18" font-weight="400" fill="#26334A" text-anchor="start">hintSteps / solveSteps / no_guess</text>
<line x1="272" y1="360" x2="272" y2="430" stroke="#E23B4A" stroke-width="4" stroke-linecap="round" marker-end="url(#arrow)"/>
<rect x="112" y="430" width="320" height="100" rx="16" fill="#FFF8ED" stroke="#F0C36A" stroke-width="2" />
<text x="272" y="468" font-family="Arial, PingFang SC, sans-serif" font-size="20" font-weight="700" fill="#26334A" text-anchor="middle">LevelStore 加载与基础校验</text>
<text x="272" y="500" font-family="Arial, PingFang SC, sans-serif" font-size="17" font-weight="400" fill="#536278" text-anchor="middle">尺寸、区域、答案数量</text>
<line x1="272" y1="530" x2="272" y2="600" stroke="#E23B4A" stroke-width="4" stroke-linecap="round" marker-end="url(#arrow)"/>
<rect x="136" y="594" width="272" height="272" rx="12" fill="#26334A" stroke="#26334A" stroke-width="0" />
<rect x="142.0" y="600.0" width="43.333333333333336" height="43.333333333333336" rx="4" fill="#B8E6B1" stroke="#FFFFFF" stroke-width="2" />
<rect x="185.33333333333334" y="600.0" width="43.333333333333336" height="43.333333333333336" rx="4" fill="#B8E6B1" stroke="#FFFFFF" stroke-width="2" />
<rect x="228.66666666666669" y="600.0" width="43.333333333333336" height="43.333333333333336" rx="4" fill="#FFE6A7" stroke="#FFFFFF" stroke-width="2" />
<rect x="272.0" y="600.0" width="43.333333333333336" height="43.333333333333336" rx="4" fill="#FFE6A7" stroke="#FFFFFF" stroke-width="2" />
<rect x="315.33333333333337" y="600.0" width="43.333333333333336" height="43.333333333333336" rx="4" fill="#A8D8FF" stroke="#FFFFFF" stroke-width="2" />
<rect x="358.6666666666667" y="600.0" width="43.333333333333336" height="43.333333333333336" rx="4" fill="#A8D8FF" stroke="#FFFFFF" stroke-width="2" />
<rect x="142.0" y="643.3333333333334" width="43.333333333333336" height="43.333333333333336" rx="4" fill="#B8E6B1" stroke="#FFFFFF" stroke-width="2" />
<rect x="185.33333333333334" y="643.3333333333334" width="43.333333333333336" height="43.333333333333336" rx="4" fill="#B8E6B1" stroke="#FFFFFF" stroke-width="2" />
<rect x="228.66666666666669" y="643.3333333333334" width="43.333333333333336" height="43.333333333333336" rx="4" fill="#B8E6B1" stroke="#FFFFFF" stroke-width="2" />
<rect x="272.0" y="643.3333333333334" width="43.333333333333336" height="43.333333333333336" rx="4" fill="#FFE6A7" stroke="#FFFFFF" stroke-width="2" />
<rect x="315.33333333333337" y="643.3333333333334" width="43.333333333333336" height="43.333333333333336" rx="4" fill="#FFE6A7" stroke="#FFFFFF" stroke-width="2" />
<rect x="358.6666666666667" y="643.3333333333334" width="43.333333333333336" height="43.333333333333336" rx="4" fill="#A8D8FF" stroke="#FFFFFF" stroke-width="2" />
<rect x="142.0" y="686.6666666666666" width="43.333333333333336" height="43.333333333333336" rx="4" fill="#FFC6C6" stroke="#FFFFFF" stroke-width="2" />
<rect x="185.33333333333334" y="686.6666666666666" width="43.333333333333336" height="43.333333333333336" rx="4" fill="#B8E6B1" stroke="#FFFFFF" stroke-width="2" />
<rect x="228.66666666666669" y="686.6666666666666" width="43.333333333333336" height="43.333333333333336" rx="4" fill="#B8E6B1" stroke="#FFFFFF" stroke-width="2" />
<rect x="272.0" y="686.6666666666666" width="43.333333333333336" height="43.333333333333336" rx="4" fill="#FFE6A7" stroke="#FFFFFF" stroke-width="2" />
<rect x="315.33333333333337" y="686.6666666666666" width="43.333333333333336" height="43.333333333333336" rx="4" fill="#FFE6A7" stroke="#FFFFFF" stroke-width="2" />
<rect x="358.6666666666667" y="686.6666666666666" width="43.333333333333336" height="43.333333333333336" rx="4" fill="#A8D8FF" stroke="#FFFFFF" stroke-width="2" />
<rect x="142.0" y="730.0" width="43.333333333333336" height="43.333333333333336" rx="4" fill="#FFC6C6" stroke="#FFFFFF" stroke-width="2" />
<rect x="185.33333333333334" y="730.0" width="43.333333333333336" height="43.333333333333336" rx="4" fill="#B8E6B1" stroke="#FFFFFF" stroke-width="2" />
<rect x="228.66666666666669" y="730.0" width="43.333333333333336" height="43.333333333333336" rx="4" fill="#FFE6A7" stroke="#FFFFFF" stroke-width="2" />
<rect x="272.0" y="730.0" width="43.333333333333336" height="43.333333333333336" rx="4" fill="#FFE6A7" stroke="#FFFFFF" stroke-width="2" />
<rect x="315.33333333333337" y="730.0" width="43.333333333333336" height="43.333333333333336" rx="4" fill="#E7C6FF" stroke="#FFFFFF" stroke-width="2" />
<rect x="358.6666666666667" y="730.0" width="43.333333333333336" height="43.333333333333336" rx="4" fill="#E7C6FF" stroke="#FFFFFF" stroke-width="2" />
<rect x="142.0" y="773.3333333333334" width="43.333333333333336" height="43.333333333333336" rx="4" fill="#FFC6C6" stroke="#FFFFFF" stroke-width="2" />
<rect x="185.33333333333334" y="773.3333333333334" width="43.333333333333336" height="43.333333333333336" rx="4" fill="#FFC6C6" stroke="#FFFFFF" stroke-width="2" />
<rect x="228.66666666666669" y="773.3333333333334" width="43.333333333333336" height="43.333333333333336" rx="4" fill="#FFC6C6" stroke="#FFFFFF" stroke-width="2" />
<rect x="272.0" y="773.3333333333334" width="43.333333333333336" height="43.333333333333336" rx="4" fill="#B9F2E6" stroke="#FFFFFF" stroke-width="2" />
<rect x="315.33333333333337" y="773.3333333333334" width="43.333333333333336" height="43.333333333333336" rx="4" fill="#E7C6FF" stroke="#FFFFFF" stroke-width="2" />
<rect x="358.6666666666667" y="773.3333333333334" width="43.333333333333336" height="43.333333333333336" rx="4" fill="#E7C6FF" stroke="#FFFFFF" stroke-width="2" />
<rect x="142.0" y="816.6666666666667" width="43.333333333333336" height="43.333333333333336" rx="4" fill="#FFC6C6" stroke="#FFFFFF" stroke-width="2" />
<rect x="185.33333333333334" y="816.6666666666667" width="43.333333333333336" height="43.333333333333336" rx="4" fill="#FFC6C6" stroke="#FFFFFF" stroke-width="2" />
<rect x="228.66666666666669" y="816.6666666666667" width="43.333333333333336" height="43.333333333333336" rx="4" fill="#FFC6C6" stroke="#FFFFFF" stroke-width="2" />
<rect x="272.0" y="816.6666666666667" width="43.333333333333336" height="43.333333333333336" rx="4" fill="#B9F2E6" stroke="#FFFFFF" stroke-width="2" />
<rect x="315.33333333333337" y="816.6666666666667" width="43.333333333333336" height="43.333333333333336" rx="4" fill="#B9F2E6" stroke="#FFFFFF" stroke-width="2" />
<rect x="358.6666666666667" y="816.6666666666667" width="43.333333333333336" height="43.333333333333336" rx="4" fill="#B9F2E6" stroke="#FFFFFF" stroke-width="2" />
<circle cx="548" cy="205" r="20" fill="#E23B4A"/>
<text x="548" y="212" font-family="Arial, PingFang SC, sans-serif" font-size="21" font-weight="700" fill="#fff" text-anchor="middle">1</text>
<text x="580" y="202" font-family="Arial, PingFang SC, sans-serif" font-size="22" font-weight="700" fill="#26334A" text-anchor="start">数据事实源</text>
<text x="580" y="232" font-family="Arial, PingFang SC, sans-serif" font-size="18" font-weight="400" fill="#536278" text-anchor="start">默认关卡从 JSON 读取，新增关卡优先改这里。</text>
<line x1="432" y1="230" x2="532" y2="205" stroke="#E23B4A" stroke-width="4" stroke-linecap="round" marker-end="url(#arrow)"/>
<circle cx="548" cy="450" r="20" fill="#E23B4A"/>
<text x="548" y="457" font-family="Arial, PingFang SC, sans-serif" font-size="21" font-weight="700" fill="#fff" text-anchor="middle">2</text>
<text x="580" y="447" font-family="Arial, PingFang SC, sans-serif" font-size="22" font-weight="700" fill="#26334A" text-anchor="start">加载校验</text>
<text x="580" y="477" font-family="Arial, PingFang SC, sans-serif" font-size="18" font-weight="400" fill="#536278" text-anchor="start">运行时做基础结构校验，避免页面加载无效关卡。</text>
<line x1="432" y1="478" x2="532" y2="450" stroke="#E23B4A" stroke-width="4" stroke-linecap="round" marker-end="url(#arrow)"/>
<circle cx="548" cy="710" r="20" fill="#E23B4A"/>
<text x="548" y="717" font-family="Arial, PingFang SC, sans-serif" font-size="21" font-weight="700" fill="#fff" text-anchor="middle">3</text>
<text x="580" y="707" font-family="Arial, PingFang SC, sans-serif" font-size="22" font-weight="700" fill="#26334A" text-anchor="start">测试兜底</text>
<text x="580" y="737" font-family="Arial, PingFang SC, sans-serif" font-size="18" font-weight="400" fill="#536278" text-anchor="start">冒烟测试负责唯一解、难度、no_guess 和路径数据检查。</text>
<line x1="402" y1="722" x2="532" y2="710" stroke="#E23B4A" stroke-width="4" stroke-linecap="round" marker-end="url(#arrow)"/>
</svg>