<svg xmlns="http://www.w3.org/2000/svg" width="960" height="1280" viewBox="0 0 960 1280">
<defs>
<marker id="arrow" viewBox="0 0 10 10" refX="9" refY="5" markerWidth="8" markerHeight="8" orient="auto-start-reverse"><path d="M 0 0 L 10 5 L 0 10 z" fill="#E23B4A"/></marker>
<filter id="shadow" x="-20%" y="-20%" width="140%" height="140%"><feDropShadow dx="0" dy="12" stdDeviation="12" flood-color="#1d2b45" flood-opacity="0.18"/></filter>
</defs>
<rect width="960" height="1280" fill="#F5F7FB"/>
<text x="72" y="48" font-family="Arial, sans-serif" font-size="28" font-weight="700" fill="#26334A">6.7 通关与奖励模块：完成后流转</text>
<rect x="72" y="84" width="420" height="1040" rx="34" fill="#FFFFFF" stroke="#26334A" stroke-width="4" filter="url(#shadow)"/>
<rect x="92" y="108" width="380" height="992" rx="22" fill="#DFF4FF" stroke="#D8DEE9" stroke-width="1" />
<text x="282.0" y="154" font-family="Arial, PingFang SC, sans-serif" font-size="24" font-weight="700" fill="#26334A" text-anchor="middle">通关弹窗</text>
<rect x="101" y="214" width="342" height="342" rx="12" fill="#26334A" stroke="#26334A" stroke-width="0" />
<rect x="107.0" y="220.0" width="55.0" height="55.0" rx="4" fill="#B8E6B1" stroke="#FFFFFF" stroke-width="2" />
<rect x="162.0" y="220.0" width="55.0" height="55.0" rx="4" fill="#B8E6B1" stroke="#FFFFFF" stroke-width="2" />
<rect x="217.0" y="220.0" width="55.0" height="55.0" rx="4" fill="#FFE6A7" stroke="#FFFFFF" stroke-width="2" />
<text x="244.5" y="258.5" font-family="Arial, PingFang SC, sans-serif" font-size="19" font-weight="700" fill="#26334A" text-anchor="middle">皇冠</text>
<rect x="272.0" y="220.0" width="55.0" height="55.0" rx="4" fill="#FFE6A7" stroke="#FFFFFF" stroke-width="2" />
<rect x="327.0" y="220.0" width="55.0" height="55.0" rx="4" fill="#A8D8FF" stroke="#FFFFFF" stroke-width="2" />
<rect x="382.0" y="220.0" width="55.0" height="55.0" rx="4" fill="#A8D8FF" stroke="#FFFFFF" stroke-width="2" />
<rect x="107.0" y="275.0" width="55.0" height="55.0" rx="4" fill="#B8E6B1" stroke="#FFFFFF" stroke-width="2" />
<rect x="162.0" y="275.0" width="55.0" height="55.0" rx="4" fill="#B8E6B1" stroke="#FFFFFF" stroke-width="2" />
<rect x="217.0" y="275.0" width="55.0" height="55.0" rx="4" fill="#B8E6B1" stroke="#FFFFFF" stroke-width="2" />
<rect x="272.0" y="275.0" width="55.0" height="55.0" rx="4" fill="#FFE6A7" stroke="#FFFFFF" stroke-width="2" />
<rect x="327.0" y="275.0" width="55.0" height="55.0" rx="4" fill="#FFE6A7" stroke="#FFFFFF" stroke-width="2" />
<rect x="382.0" y="275.0" width="55.0" height="55.0" rx="4" fill="#A8D8FF" stroke="#FFFFFF" stroke-width="2" />
<text x="409.5" y="313.5" font-family="Arial, PingFang SC, sans-serif" font-size="19" font-weight="700" fill="#26334A" text-anchor="middle">皇冠</text>
<rect x="107.0" y="330.0" width="55.0" height="55.0" rx="4" fill="#FFC6C6" stroke="#FFFFFF" stroke-width="2" />
<rect x="162.0" y="330.0" width="55.0" height="55.0" rx="4" fill="#B8E6B1" stroke="#FFFFFF" stroke-width="2" />
<text x="189.5" y="368.5" font-family="Arial, PingFang SC, sans-serif" font-size="19" font-weight="700" fill="#26334A" text-anchor="middle">皇冠</text>
<rect x="217.0" y="330.0" width="55.0" height="55.0" rx="4" fill="#B8E6B1" stroke="#FFFFFF" stroke-width="2" />
<rect x="272.0" y="330.0" width="55.0" height="55.0" rx="4" fill="#FFE6A7" stroke="#FFFFFF" stroke-width="2" />
<rect x="327.0" y="330.0" width="55.0" height="55.0" rx="4" fill="#FFE6A7" stroke="#FFFFFF" stroke-width="2" />
<rect x="382.0" y="330.0" width="55.0" height="55.0" rx="4" fill="#A8D8FF" stroke="#FFFFFF" stroke-width="2" />
<rect x="107.0" y="385.0" width="55.0" height="55.0" rx="4" fill="#FFC6C6" stroke="#FFFFFF" stroke-width="2" />
<rect x="162.0" y="385.0" width="55.0" height="55.0" rx="4" fill="#B8E6B1" stroke="#FFFFFF" stroke-width="2" />
<rect x="217.0" y="385.0" width="55.0" height="55.0" rx="4" fill="#FFE6A7" stroke="#FFFFFF" stroke-width="2" />
<rect x="272.0" y="385.0" width="55.0" height="55.0" rx="4" fill="#FFE6A7" stroke="#FFFFFF" stroke-width="2" />
<rect x="327.0" y="385.0" width="55.0" height="55.0" rx="4" fill="#E7C6FF" stroke="#FFFFFF" stroke-width="2" />
<text x="354.5" y="423.5" font-family="Arial, PingFang SC, sans-serif" font-size="19" font-weight="700" fill="#26334A" text-anchor="middle">皇冠</text>
<rect x="382.0" y="385.0" width="55.0" height="55.0" rx="4" fill="#E7C6FF" stroke="#FFFFFF" stroke-width="2" />
<rect x="107.0" y="440.0" width="55.0" height="55.0" rx="4" fill="#FFC6C6" stroke="#FFFFFF" stroke-width="2" />
<text x="134.5" y="478.5" font-family="Arial, PingFang SC, sans-serif" font-size="19" font-weight="700" fill="#26334A" text-anchor="middle">皇冠</text>
<rect x="162.0" y="440.0" width="55.0" height="55.0" rx="4" fill="#FFC6C6" stroke="#FFFFFF" stroke-width="2" />
<rect x="217.0" y="440.0" width="55.0" height="55.0" rx="4" fill="#FFC6C6" stroke="#FFFFFF" stroke-width="2" />
<rect x="272.0" y="440.0" width="55.0" height="55.0" rx="4" fill="#B9F2E6" stroke="#FFFFFF" stroke-width="2" />
<rect x="327.0" y="440.0" width="55.0" height="55.0" rx="4" fill="#E7C6FF" stroke="#FFFFFF" stroke-width="2" />
<rect x="382.0" y="440.0" width="55.0" height="55.0" rx="4" fill="#E7C6FF" stroke="#FFFFFF" stroke-width="2" />
<rect x="107.0" y="495.0" width="55.0" height="55.0" rx="4" fill="#FFC6C6" stroke="#FFFFFF" stroke-width="2" />
<rect x="162.0" y="495.0" width="55.0" height="55.0" rx="4" fill="#FFC6C6" stroke="#FFFFFF" stroke-width="2" />
<rect x="217.0" y="495.0" width="55.0" height="55.0" rx="4" fill="#FFC6C6" stroke="#FFFFFF" stroke-width="2" />
<rect x="272.0" y="495.0" width="55.0" height="55.0" rx="4" fill="#B9F2E6" stroke="#FFFFFF" stroke-width="2" />
<text x="299.5" y="533.5" font-family="Arial, PingFang SC, sans-serif" font-size="19" font-weight="700" fill="#26334A" text-anchor="middle">皇冠</text>
<rect x="327.0" y="495.0" width="55.0" height="55.0" rx="4" fill="#B9F2E6" stroke="#FFFFFF" stroke-width="2" />
<rect x="382.0" y="495.0" width="55.0" height="55.0" rx="4" fill="#B9F2E6" stroke="#FFFFFF" stroke-width="2" />
<rect x="126" y="535" width="292" height="250" rx="20" fill="#FFFFFF" stroke="#D8DEE9" stroke-width="3" filter="url(#shadow)"/>
<text x="272" y="590" font-family="Arial, PingFang SC, sans-serif" font-size="28" font-weight="700" fill="#26334A" text-anchor="middle">通关成功</text>
<text x="272" y="630" font-family="Arial, PingFang SC, sans-serif" font-size="22" font-weight="700" fill="#48B985" text-anchor="middle">奖励金币 +10</text>
<rect x="158" y="668" width="228" height="54" rx="16" fill="#48B985" stroke="#2A9C6F" stroke-width="2" />
<text x="272.0" y="703.0" font-family="Arial, PingFang SC, sans-serif" font-size="22" font-weight="700" fill="#fff" text-anchor="middle">下一关</text>
<rect x="158" y="736" width="228" height="42" rx="16" fill="#FFFFFF" stroke="#D8DEE9" stroke-width="2" />
<text x="272.0" y="765.0" font-family="Arial, PingFang SC, sans-serif" font-size="22" font-weight="700" fill="#fff" text-anchor="middle">重玩本关</text>
<text x="272" y="764" font-family="Arial, PingFang SC, sans-serif" font-size="17" font-weight="700" fill="#26334A" text-anchor="middle">重玩本关</text>
<circle cx="548" cy="255" r="20" fill="#E23B4A"/>
<text x="548" y="262" font-family="Arial, PingFang SC, sans-serif" font-size="21" font-weight="700" fill="#fff" text-anchor="middle">1</text>
<text x="580" y="252" font-family="Arial, PingFang SC, sans-serif" font-size="22" font-weight="700" fill="#26334A" text-anchor="start">完成判定</text>
<text x="580" y="282" font-family="Arial, PingFang SC, sans-serif" font-size="18" font-weight="400" fill="#536278" text-anchor="start">皇冠数达到目标且无规则冲突后触发通关。</text>
<line x1="430" y1="310" x2="532" y2="255" stroke="#E23B4A" stroke-width="4" stroke-linecap="round" marker-end="url(#arrow)"/>
<circle cx="548" cy="555" r="20" fill="#E23B4A"/>
<text x="548" y="562" font-family="Arial, PingFang SC, sans-serif" font-size="21" font-weight="700" fill="#fff" text-anchor="middle">2</text>
<text x="580" y="552" font-family="Arial, PingFang SC, sans-serif" font-size="22" font-weight="700" fill="#26334A" text-anchor="start">奖励写入</text>
<text x="580" y="582" font-family="Arial, PingFang SC, sans-serif" font-size="18" font-weight="400" fill="#536278" text-anchor="start">金币奖励和完成记录保存到本地存档。</text>
<line x1="418" y1="628" x2="532" y2="555" stroke="#E23B4A" stroke-width="4" stroke-linecap="round" marker-end="url(#arrow)"/>
<circle cx="548" cy="770" r="20" fill="#E23B4A"/>
<text x="548" y="777" font-family="Arial, PingFang SC, sans-serif" font-size="21" font-weight="700" fill="#fff" text-anchor="middle">3</text>
<text x="580" y="767" font-family="Arial, PingFang SC, sans-serif" font-size="22" font-weight="700" fill="#26334A" text-anchor="start">后续操作</text>
<text x="580" y="797" font-family="Arial, PingFang SC, sans-serif" font-size="18" font-weight="400" fill="#536278" text-anchor="start">下一关加载新关卡；重玩会重置当前棋盘。</text>
<line x1="386" y1="696" x2="532" y2="770" stroke="#E23B4A" stroke-width="4" stroke-linecap="round" marker-end="url(#arrow)"/>
</svg>