<svg xmlns="http://www.w3.org/2000/svg" width="960" height="1280" viewBox="0 0 960 1280">
<defs>
<marker id="arrow" viewBox="0 0 10 10" refX="9" refY="5" markerWidth="8" markerHeight="8" orient="auto-start-reverse"><path d="M 0 0 L 10 5 L 0 10 z" fill="#E23B4A"/></marker>
<filter id="shadow" x="-20%" y="-20%" width="140%" height="140%"><feDropShadow dx="0" dy="12" stdDeviation="12" flood-color="#1d2b45" flood-opacity="0.18"/></filter>
</defs>
<rect width="960" height="1280" fill="#F5F7FB"/>
<text x="72" y="48" font-family="Arial, sans-serif" font-size="28" font-weight="700" fill="#26334A">6.10 关卡编辑器模块：制作与校验</text>
<rect x="72" y="84" width="420" height="1040" rx="34" fill="#FFFFFF" stroke="#26334A" stroke-width="4" filter="url(#shadow)"/>
<rect x="92" y="108" width="380" height="992" rx="22" fill="#DFF4FF" stroke="#D8DEE9" stroke-width="1" />
<text x="282.0" y="154" font-family="Arial, PingFang SC, sans-serif" font-size="24" font-weight="700" fill="#26334A" text-anchor="middle">关卡编辑器</text>
<rect x="108" y="176" width="92" height="42" rx="12" fill="#FFFFFF" stroke="#D8DEE9" stroke-width="2" />
<text x="154.0" y="204" font-family="Arial, PingFang SC, sans-serif" font-size="17" font-weight="700" fill="#26334A" text-anchor="middle">返回</text>
<rect x="214" y="176" width="118" height="42" rx="12" fill="#FFFFFF" stroke="#D8DEE9" stroke-width="2" />
<text x="273.0" y="204" font-family="Arial, PingFang SC, sans-serif" font-size="17" font-weight="700" fill="#26334A" text-anchor="middle">选择关卡</text>
<rect x="346" y="176" width="74" height="42" rx="12" fill="#FFFFFF" stroke="#D8DEE9" stroke-width="2" />
<text x="383.0" y="204" font-family="Arial, PingFang SC, sans-serif" font-size="17" font-weight="700" fill="#26334A" text-anchor="middle">保存</text>
<rect x="112" y="240" width="320" height="110" rx="16" fill="#FFFFFF" stroke="#D8DEE9" stroke-width="2" />
<text x="132" y="280" font-family="Arial, PingFang SC, sans-serif" font-size="19" font-weight="700" fill="#26334A" text-anchor="start">名称：第一步</text>
<text x="132" y="314" font-family="Arial, PingFang SC, sans-serif" font-size="17" font-weight="400" fill="#536278" text-anchor="start">教程：每一行只能有一个皇冠...</text>
<rect x="112" y="382" width="110" height="42" rx="12" fill="#FFFFFF" stroke="#D8DEE9" stroke-width="2" />
<text x="167.0" y="410" font-family="Arial, PingFang SC, sans-serif" font-size="17" font-weight="700" fill="#26334A" text-anchor="middle">区域 1</text>
<rect x="234" y="382" width="154" height="42" rx="12" fill="#FFFFFF" stroke="#D8DEE9" stroke-width="2" />
<text x="311.0" y="410" font-family="Arial, PingFang SC, sans-serif" font-size="17" font-weight="700" fill="#26334A" text-anchor="middle">答案模式</text>
<rect x="101" y="454" width="342" height="342" rx="12" fill="#26334A" stroke="#26334A" stroke-width="0" />
<rect x="107.0" y="460.0" width="55.0" height="55.0" rx="4" fill="#B8E6B1" stroke="#FFFFFF" stroke-width="2" />
<rect x="162.0" y="460.0" width="55.0" height="55.0" rx="4" fill="#B8E6B1" stroke="#FFFFFF" stroke-width="2" />
<rect x="217.0" y="460.0" width="55.0" height="55.0" rx="4" fill="#FFE6A7" stroke="#FFFFFF" stroke-width="2" />
<rect x="222.0" y="465.0" width="45.0" height="45.0" rx="8" fill="none" stroke="#48B985" stroke-width="5" />
<text x="244.5" y="498.5" font-family="Arial, PingFang SC, sans-serif" font-size="19" font-weight="700" fill="#26334A" text-anchor="middle">皇冠</text>
<rect x="272.0" y="460.0" width="55.0" height="55.0" rx="4" fill="#FFE6A7" stroke="#FFFFFF" stroke-width="2" />
<rect x="327.0" y="460.0" width="55.0" height="55.0" rx="4" fill="#A8D8FF" stroke="#FFFFFF" stroke-width="2" />
<rect x="382.0" y="460.0" width="55.0" height="55.0" rx="4" fill="#A8D8FF" stroke="#FFFFFF" stroke-width="2" />
<rect x="107.0" y="515.0" width="55.0" height="55.0" rx="4" fill="#B8E6B1" stroke="#FFFFFF" stroke-width="2" />
<rect x="162.0" y="515.0" width="55.0" height="55.0" rx="4" fill="#B8E6B1" stroke="#FFFFFF" stroke-width="2" />
<rect x="167.0" y="520.0" width="45.0" height="45.0" rx="8" fill="none" stroke="#F9B84A" stroke-width="5" />
<rect x="217.0" y="515.0" width="55.0" height="55.0" rx="4" fill="#B8E6B1" stroke="#FFFFFF" stroke-width="2" />
<rect x="272.0" y="515.0" width="55.0" height="55.0" rx="4" fill="#FFE6A7" stroke="#FFFFFF" stroke-width="2" />
<rect x="327.0" y="515.0" width="55.0" height="55.0" rx="4" fill="#FFE6A7" stroke="#FFFFFF" stroke-width="2" />
<rect x="382.0" y="515.0" width="55.0" height="55.0" rx="4" fill="#A8D8FF" stroke="#FFFFFF" stroke-width="2" />
<rect x="107.0" y="570.0" width="55.0" height="55.0" rx="4" fill="#FFC6C6" stroke="#FFFFFF" stroke-width="2" />
<rect x="162.0" y="570.0" width="55.0" height="55.0" rx="4" fill="#B8E6B1" stroke="#FFFFFF" stroke-width="2" />
<rect x="217.0" y="570.0" width="55.0" height="55.0" rx="4" fill="#B8E6B1" stroke="#FFFFFF" stroke-width="2" />
<rect x="272.0" y="570.0" width="55.0" height="55.0" rx="4" fill="#FFE6A7" stroke="#FFFFFF" stroke-width="2" />
<rect x="327.0" y="570.0" width="55.0" height="55.0" rx="4" fill="#FFE6A7" stroke="#FFFFFF" stroke-width="2" />
<rect x="382.0" y="570.0" width="55.0" height="55.0" rx="4" fill="#A8D8FF" stroke="#FFFFFF" stroke-width="2" />
<rect x="107.0" y="625.0" width="55.0" height="55.0" rx="4" fill="#FFC6C6" stroke="#FFFFFF" stroke-width="2" />
<rect x="162.0" y="625.0" width="55.0" height="55.0" rx="4" fill="#B8E6B1" stroke="#FFFFFF" stroke-width="2" />
<rect x="217.0" y="625.0" width="55.0" height="55.0" rx="4" fill="#FFE6A7" stroke="#FFFFFF" stroke-width="2" />
<rect x="272.0" y="625.0" width="55.0" height="55.0" rx="4" fill="#FFE6A7" stroke="#FFFFFF" stroke-width="2" />
<rect x="327.0" y="625.0" width="55.0" height="55.0" rx="4" fill="#E7C6FF" stroke="#FFFFFF" stroke-width="2" />
<rect x="382.0" y="625.0" width="55.0" height="55.0" rx="4" fill="#E7C6FF" stroke="#FFFFFF" stroke-width="2" />
<rect x="107.0" y="680.0" width="55.0" height="55.0" rx="4" fill="#FFC6C6" stroke="#FFFFFF" stroke-width="2" />
<rect x="162.0" y="680.0" width="55.0" height="55.0" rx="4" fill="#FFC6C6" stroke="#FFFFFF" stroke-width="2" />
<rect x="217.0" y="680.0" width="55.0" height="55.0" rx="4" fill="#FFC6C6" stroke="#FFFFFF" stroke-width="2" />
<rect x="272.0" y="680.0" width="55.0" height="55.0" rx="4" fill="#B9F2E6" stroke="#FFFFFF" stroke-width="2" />
<rect x="327.0" y="680.0" width="55.0" height="55.0" rx="4" fill="#E7C6FF" stroke="#FFFFFF" stroke-width="2" />
<rect x="382.0" y="680.0" width="55.0" height="55.0" rx="4" fill="#E7C6FF" stroke="#FFFFFF" stroke-width="2" />
<rect x="107.0" y="735.0" width="55.0" height="55.0" rx="4" fill="#FFC6C6" stroke="#FFFFFF" stroke-width="2" />
<rect x="162.0" y="735.0" width="55.0" height="55.0" rx="4" fill="#FFC6C6" stroke="#FFFFFF" stroke-width="2" />
<rect x="217.0" y="735.0" width="55.0" height="55.0" rx="4" fill="#FFC6C6" stroke="#FFFFFF" stroke-width="2" />
<rect x="272.0" y="735.0" width="55.0" height="55.0" rx="4" fill="#B9F2E6" stroke="#FFFFFF" stroke-width="2" />
<rect x="327.0" y="735.0" width="55.0" height="55.0" rx="4" fill="#B9F2E6" stroke="#FFFFFF" stroke-width="2" />
<rect x="382.0" y="735.0" width="55.0" height="55.0" rx="4" fill="#B9F2E6" stroke="#FFFFFF" stroke-width="2" />
<rect x="112" y="830" width="320" height="70" rx="14" fill="#FFF8ED" stroke="#F0C36A" stroke-width="2" />
<text x="272" y="874" font-family="Arial, PingFang SC, sans-serif" font-size="17" font-weight="700" fill="#26334A" text-anchor="middle">校验：答案数量 / 行列区域 / 相邻</text>
<circle cx="548" cy="180" r="20" fill="#E23B4A"/>
<text x="548" y="187" font-family="Arial, PingFang SC, sans-serif" font-size="21" font-weight="700" fill="#fff" text-anchor="middle">1</text>
<text x="580" y="177" font-family="Arial, PingFang SC, sans-serif" font-size="22" font-weight="700" fill="#26334A" text-anchor="start">选择与保存</text>
<text x="580" y="207" font-family="Arial, PingFang SC, sans-serif" font-size="18" font-weight="400" fill="#536278" text-anchor="start">选择关卡后加载表单；保存会写回 levels.json。</text>
<line x1="420" y1="190" x2="532" y2="180" stroke="#E23B4A" stroke-width="4" stroke-linecap="round" marker-end="url(#arrow)"/>
<circle cx="548" cy="330" r="20" fill="#E23B4A"/>
<text x="548" y="337" font-family="Arial, PingFang SC, sans-serif" font-size="21" font-weight="700" fill="#fff" text-anchor="middle">2</text>
<text x="580" y="327" font-family="Arial, PingFang SC, sans-serif" font-size="22" font-weight="700" fill="#26334A" text-anchor="start">文本编辑</text>
<text x="580" y="357" font-family="Arial, PingFang SC, sans-serif" font-size="18" font-weight="400" fill="#536278" text-anchor="start">可修改关卡名称和教程文案，保存前同步到当前关卡。</text>
<line x1="432" y1="290" x2="532" y2="330" stroke="#E23B4A" stroke-width="4" stroke-linecap="round" marker-end="url(#arrow)"/>
<circle cx="548" cy="545" r="20" fill="#E23B4A"/>
<text x="548" y="552" font-family="Arial, PingFang SC, sans-serif" font-size="21" font-weight="700" fill="#fff" text-anchor="middle">3</text>
<text x="580" y="542" font-family="Arial, PingFang SC, sans-serif" font-size="22" font-weight="700" fill="#26334A" text-anchor="start">涂色 / 答案模式</text>
<text x="580" y="572" font-family="Arial, PingFang SC, sans-serif" font-size="18" font-weight="400" fill="#536278" text-anchor="start">普通模式改区域编号；答案模式切换 solution 点位。</text>
<line x1="400" y1="394" x2="532" y2="545" stroke="#E23B4A" stroke-width="4" stroke-linecap="round" marker-end="url(#arrow)"/>
<circle cx="548" cy="800" r="20" fill="#E23B4A"/>
<text x="548" y="807" font-family="Arial, PingFang SC, sans-serif" font-size="21" font-weight="700" fill="#fff" text-anchor="middle">4</text>
<text x="580" y="797" font-family="Arial, PingFang SC, sans-serif" font-size="22" font-weight="700" fill="#26334A" text-anchor="start">编辑器校验</text>
<text x="580" y="827" font-family="Arial, PingFang SC, sans-serif" font-size="18" font-weight="400" fill="#536278" text-anchor="start">即时提示答案数量、唯一性相关基础约束是否满足。</text>
<line x1="432" y1="862" x2="532" y2="800" stroke="#E23B4A" stroke-width="4" stroke-linecap="round" marker-end="url(#arrow)"/>
</svg>